<svg width="46" height="47" viewBox="0 0 46 47" fill="none" xmlns="http://www.w3.org/2000/svg">
<path d="M0 0.5V46.5H46V0.5H0ZM43.304 43.8041H2.696V3.19591H43.3055V43.8056L43.304 43.8041Z" fill="#FF7800"/>
<path d="M33.7487 39.1744C37.1274 39.1744 39.8744 36.426 39.8744 33.049V28.2692H37.1784V33.049C37.1784 34.9407 35.6391 36.48 33.7472 36.48C31.8554 36.48 30.3146 34.9407 30.3146 33.049V28.2692H27.6186V33.049C27.6186 36.4275 30.3686 39.1744 33.7472 39.1744H33.7487Z" fill="#FF7800"/>
<path d="M16.1055 20.9931H13.2009L6.12413 38.6433H9.02867L16.1055 20.9931Z" fill="#FF7800"/>
<path d="M26.5864 38.6433L19.5066 20.9931H16.6021L23.6804 38.6433H26.5864Z" fill="#FF7800"/>
<path d="M29.4504 10.9071H28.2487L27.9637 11.6542H27.3035L28.5608 8.44371H28.8458C29.0454 8.44371 29.1789 8.53522 29.2494 8.71825L30.3911 11.6542H29.731L29.4504 10.9071ZM28.4183 10.3745H29.2809L28.8548 9.21783H28.8503L28.4183 10.3745Z" fill="#FF7800"/>
<path d="M30.8217 11.4457C30.6747 11.2821 30.6012 11.0676 30.6012 10.8006V9.36485H31.2253V10.8096C31.2253 10.9101 31.2508 10.9926 31.3003 11.0556C31.3513 11.1186 31.4173 11.1501 31.4998 11.1501H31.7654C31.8659 11.1501 31.9574 11.1081 32.0399 11.0241C32.1224 10.9401 32.181 10.8291 32.214 10.6911V9.36485H32.8381V11.6542H32.2605V11.3602C32.19 11.4577 32.1044 11.5372 32.0009 11.5987C31.8989 11.6602 31.7999 11.6902 31.7054 11.6902H31.4023C31.1608 11.6902 30.9657 11.6092 30.8202 11.4442L30.8217 11.4457Z" fill="#FF7800"/>
<path d="M33.5717 11.6107C33.5432 11.5822 33.5282 11.5417 33.5282 11.4892V8.44371H34.8349C35.0705 8.44371 35.2595 8.50372 35.4035 8.62524C35.5476 8.74676 35.6196 8.90578 35.6196 9.10531V9.38135C35.6196 9.52537 35.5911 9.64989 35.5341 9.75491C35.4771 9.85992 35.4005 9.94094 35.303 9.99495V9.99945C35.4591 10.0325 35.5851 10.1075 35.6796 10.2215C35.7741 10.3355 35.8221 10.472 35.8221 10.628V10.8981C35.8221 11.1246 35.7456 11.3076 35.5926 11.4457C35.4396 11.5852 35.237 11.6542 34.9865 11.6542H33.6932C33.6407 11.6542 33.6002 11.6392 33.5717 11.6107ZM34.928 9.96194C35.087 9.96194 35.2145 9.90943 35.3105 9.80442C35.4065 9.6994 35.4546 9.55688 35.4546 9.37985V9.10381C35.4546 8.95079 35.3975 8.82777 35.285 8.73475C35.1725 8.64174 35.0225 8.59523 34.8349 8.59523H33.6932V9.96194H34.928ZM34.9865 11.5042C35.186 11.5042 35.3465 11.4487 35.4711 11.3362C35.5956 11.2251 35.6571 11.0781 35.6571 10.8981V10.628C35.6571 10.472 35.6031 10.346 35.4966 10.2515C35.39 10.157 35.2475 10.109 35.0705 10.109H33.6947V11.5042H34.988H34.9865Z" fill="#FF7800"/>
<path d="M36.5468 8.44371H36.7118V11.6542H36.5468V8.44371Z" fill="#FF7800"/>
<path d="M38.3906 8.59523H37.3719V8.44371H39.5743V8.59523H38.5556V11.6557H38.3906V8.59523Z" fill="#FF7800"/>
<path d="M24.8266 35.9309H8.00998C8.02798 36.8295 8.00248 37.7282 8.00998 38.6268H24.8266V35.9309Z" fill="#FF7800"/>
</svg>
